# xmcd
# Track frame offsets:
# 150
# 18927
# 30318
# 41281
# 56099
# 66231
# 83638
# 103798
# 116037
# 127756
# 144844
# 162817
# 174942
# 186410
# 201362
#
# Disc length: 2834 seconds
# Revision: 0
# Processed by: cddbd v1.4PL0 Copyright (c) Steve Scherf et al.
# Submitted via: VisiTrax 2.9.5.180 - For more info visit www.synapsa.com
#
DISCID=be0b100f
DTITLE=Heidi Hauge - Country dance
DYEAR=2003
DGENRE=Country
TTITLE0=Save The Last Dance for me
TTITLE1=Diggy liggy lo
TTITLE2=Lead me on
TTITLE3=A good year for the roses
TTITLE4=I never really knew you
TTITLE5=Seven Spanish angels
TTITLE6=Skaidi
TTITLE7=When the rodeo is over
TTITLE8=As soon as I hang up the phone
TTITLE9=Dancing the night away
TTITLE10=All those years
TTITLE11=He thinks I still care
TTITLE12=It's a cowboy lovin' night
TTITLE13=Harper Valley P.T.A
TTITLE14=All that's keeping me alive
EXTD=Showtime records SR 016 2003
EXTT0=
EXTT1=
EXTT2=
EXTT3=
EXTT4=
EXTT5=
EXTT6=
EXTT7=
EXTT8=
EXTT9=
EXTT10=
EXTT11=
EXTT12=
EXTT13=
EXTT14=
PLAYORDER=
